# xmcd
#
# Track frame offsets: 
#        150
#        13316
#        28783
#        44094
#        59066
#        72735
#        84084
#        98938
#        117559
#        136766
#        152550
#        165487
#        180551
#        211615
#        233169
#        246425
#        259964
#        277121
#        297080
#        314996
#        335097
#
# Disc length: 4781 seconds
#
# Revision: 0
# Processed by: cddbd v1.5.2PL0 Copyright (c) Steve Scherf et al.
# Submitted via: ExactAudioCopy v1.0b1
#
DISCID=4912ab15
DTITLE=Paul Kelly - Paul Kelly's Greatest Hits
DYEAR=1997
DGENRE=Folk/Rock
TTITLE0=From St Kilda to Kings Cross
TTITLE1=Leaps and Bounds
TTITLE2=Before Too Long
TTITLE3=Darling it Hurts
TTITLE4=Look so Fine, Feel so Low
TTITLE5=Dumb Things
TTITLE6=Tease Me
TTITLE7=It Started With a Kiss
TTITLE8=Everything's Turned to White
TTITLE9=Sweet Guy
TTITLE10=Careless
TTITLE11=Winter Coat
TTITLE12=From Little Things Big Things Grow
TTITLE13=When I First Met Your Ma
TTITLE14=Pouring Petrol on a Burning Man
TTITLE15=Love Never Runs on Time
TTITLE16=Song From the 16th Floor
TTITLE17=Deeper Water
TTITLE18=Give in to My Love
TTITLE19=How to Make Gravy
TTITLE20=Melting
EXTD=
EXTT0=
EXTT1=
EXTT2=
EXTT3=
EXTT4=
EXTT5=
EXTT6=
EXTT7=
EXTT8=
EXTT9=
EXTT10=
EXTT11=
EXTT12=
EXTT13=
EXTT14=
EXTT15=
EXTT16=
EXTT17=
EXTT18=
EXTT19=
EXTT20=
PLAYORDER=
